<svg xmlns="http://www.w3.org/2000/svg" viewBox="-32 -32 64 64">
  <circle cx="0" cy="0" r="32" fill="#3a4a40"/>
  <g fill="#fff4c4" stroke="#c89610" stroke-width="2" stroke-linejoin="round">
    <path d="M0,-14 C5,-8.4 5,8.4 0,14 C-5,8.4 -5,-8.4 0,-14 Z" transform="translate(0,-14)"/>
    <path d="M0,-14 C5,-8.4 5,8.4 0,14 C-5,8.4 -5,-8.4 0,-14 Z" transform="rotate(45) translate(0,-14)"/>
    <path d="M0,-14 C5,-8.4 5,8.4 0,14 C-5,8.4 -5,-8.4 0,-14 Z" transform="rotate(90) translate(0,-14)"/>
    <path d="M0,-14 C5,-8.4 5,8.4 0,14 C-5,8.4 -5,-8.4 0,-14 Z" transform="rotate(135) translate(0,-14)"/>
    <path d="M0,-14 C5,-8.4 5,8.4 0,14 C-5,8.4 -5,-8.4 0,-14 Z" transform="rotate(180) translate(0,-14)"/>
    <path d="M0,-14 C5,-8.4 5,8.4 0,14 C-5,8.4 -5,-8.4 0,-14 Z" transform="rotate(225) translate(0,-14)"/>
    <path d="M0,-14 C5,-8.4 5,8.4 0,14 C-5,8.4 -5,-8.4 0,-14 Z" transform="rotate(270) translate(0,-14)"/>
    <path d="M0,-14 C5,-8.4 5,8.4 0,14 C-5,8.4 -5,-8.4 0,-14 Z" transform="rotate(315) translate(0,-14)"/>
  </g>
  <circle cx="0" cy="0" r="9" fill="#f5c842" stroke="#c89610" stroke-width="2"/>
</svg>
